<svg xmlns="http://www.w3.org/2000/svg" viewBox="0 0 1000 1000" width="1000" height="1000">
  <path d="M553.5,135L578,135.5L592.5,139L614,149.5Q631.5,161.5 644.5,178L726,258.5L726.5,260L852,384.5L766.5,471L758.5,462L757,461.5L748.5,452L676,381.5L662.5,367L655,360.5L641.5,346L634,339.5L632.5,337L631,336.5L627.5,332L624,329.5L621.5,326L602.5,308L602,571.5L602,637.5Q599.9,673.9 580.5,693L553.5,721L441.5,833L430,843.5L429.5,845L410,857.5Q399.9,864.4 384.5,866L380,866.5L364.5,867L360.5,866L352.5,865Q333.3,860.3 320,849.5L302,833.5L300.5,831L295,826.5L294.5,825L279,810.5L278.5,809L172,703.5Q163.4,693.6 158,680.5Q154,673.5 153,663.5L151.5,652L151,641.5L154,625.5Q158.5,603.5 172,590.5L200,561.5L296.5,465L300,462.5L315.5,446L320,448.5L326,454.5L337.5,467L346,474.5L358.5,488L367,495.5L379.5,509L388,516.5L390.5,520L395,523.5L398.5,528L403,531.5L387,546.5L384.5,550L381,552.5L378.5,556L309,623.5L287,646.5L350.5,710L366,725.5L370,729.5Q371.3,732.3 372.5,730L377,725.5L394,708.5L461.5,641L467,636.5L467.5,635L475,628.5L475.5,627L478,625.5L480,622.5L481,617.5L481,603.5L481,546.5L481,321.5L481,235.5L481.5,214L484,197.5L487.5,188L493,176.5Q500.2,164.2 510.5,155L530,142.5L544,137.5L553.5,135Z" fill="#FEFEFE" fill-opacity="0.996" stroke="none"/>
</svg>